<?xml version="1.0" standalone="no"?>
<!DOCTYPE svg PUBLIC "-//W3C//DTD SVG 20010904//EN"
 "http://www.w3.org/TR/2001/REC-SVG-20010904/DTD/svg10.dtd">
<svg version="1.0" xmlns="http://www.w3.org/2000/svg"
 width="861.000000pt" height="861.000000pt" viewBox="0 0 861.000000 861.000000"
 preserveAspectRatio="xMidYMid meet">
<metadata>
Created by potrace 1.14, written by Peter Selinger 2001-2017
</metadata>
<g transform="translate(0.000000,861.000000) scale(0.100000,-0.100000)"
fill="#000000" stroke="none">
<path d="M1362 6265 c0 -341 3 -465 12 -466 6 0 102 0 213 -1 l202 0 95 -102
c51 -55 109 -117 127 -137 19 -20 84 -89 144 -154 61 -66 121 -131 135 -145
14 -14 77 -82 140 -150 63 -68 129 -138 145 -156 28 -29 203 -216 270 -289 17
-17 82 -88 146 -156 64 -68 132 -141 151 -163 l35 -38 -31 -33 c-17 -18 -80
-85 -141 -150 -60 -65 -121 -131 -135 -145 -14 -15 -72 -77 -130 -140 -58 -62
-118 -127 -135 -144 -16 -18 -84 -90 -150 -161 -66 -72 -131 -141 -145 -156
-14 -14 -52 -54 -85 -90 -92 -100 -292 -314 -369 -396 l-69 -73 -212 0 -213 0
0 -465 c0 -424 2 -465 17 -466 21 -1 1772 -1 1787 0 9 1 12 125 12 466 l0 464
-143 3 -144 3 66 70 c35 39 90 97 120 130 31 33 86 92 122 130 36 39 118 126
181 194 63 68 131 140 150 161 19 20 80 86 135 145 55 59 118 126 140 150 309
329 325 347 325 356 0 3 -28 36 -62 74 -35 37 -63 71 -63 75 0 4 29 39 66 77
l65 70 -59 64 c-33 35 -82 89 -111 119 -28 31 -103 111 -166 179 -139 149
-147 157 -285 306 -60 65 -126 135 -145 155 -19 20 -60 64 -90 96 -152 163
-308 331 -335 359 -65 69 -66 65 16 64 41 0 106 0 146 0 l72 1 -1 465 0 465
-908 0 -908 0 0 -465z"/>
<path d="M3744 6265 l0 -465 36 -1 c19 0 169 -1 333 -1 l297 0 0 -1489 0
-1489 -333 0 -333 0 1 -460 c0 -337 3 -463 12 -468 8 -5 3391 -8 3459 -3 7 1
11 243 11 831 l-1 830 -25 1 c-153 4 -591 0 -600 -6 -8 -4 -12 -32 -11 -73 1
-37 1 -199 1 -359 l-1 -293 -770 0 -770 0 0 23 c-1 34 -1 1008 -1 1045 l1 32
714 0 713 0 1 460 c0 418 -2 461 -17 468 -9 4 -330 7 -713 6 -670 -1 -698 0
-699 18 0 10 0 200 0 423 0 223 0 427 0 454 l1 49 770 0 770 0 1 -237 c0 -130
0 -291 0 -358 -1 -91 3 -123 12 -124 16 0 542 0 588 0 l37 1 -1 825 0 825
-1741 0 -1742 0 0 -465z"/>
</g>
</svg>
