<?xml version="1.0" standalone="no"?>
<!DOCTYPE svg PUBLIC "-//W3C//DTD SVG 20010904//EN"
 "http://www.w3.org/TR/2001/REC-SVG-20010904/DTD/svg10.dtd">
<svg version="1.0" xmlns="http://www.w3.org/2000/svg"
 width="1024.000000pt" height="1024.000000pt" viewBox="0 0 1024.000000 1024.000000"
 preserveAspectRatio="xMidYMid meet">
<metadata>
Created by potrace 1.14, written by Peter Selinger 2001-2017
</metadata>
<g transform="translate(0.000000,1024.000000) scale(0.100000,-0.100000)"
fill="#000000" stroke="none">
<path d="M4739 9896 c-2 -2 -80 -7 -174 -10 -93 -4 -190 -9 -215 -11 -25 -2
-90 -6 -145 -10 -126 -8 -194 -13 -270 -21 -33 -3 -76 -7 -96 -9 -73 -6 -165
-16 -189 -20 -14 -2 -54 -7 -90 -10 -36 -4 -112 -13 -170 -21 -58 -8 -123 -17
-145 -20 -120 -16 -338 -50 -465 -74 -58 -10 -121 -21 -140 -24 -107 -17 -150
-27 -151 -34 -1 -4 -2 -113 -2 -242 l-2 -234 -30 -7 c-16 -4 -86 -24 -155 -44
-69 -21 -142 -42 -163 -47 -32 -9 -37 -14 -31 -32 39 -121 161 -517 177 -574
20 -70 20 -74 3 -140 -9 -37 -25 -98 -34 -136 l-17 -70 -65 -14 c-36 -7 -112
-25 -170 -39 -58 -14 -112 -26 -120 -28 -8 -2 -44 -11 -80 -20 -36 -9 -74 -18
-85 -20 -11 -3 -69 -18 -130 -35 -60 -16 -119 -32 -130 -35 -11 -3 -42 -12
-70 -20 -27 -8 -104 -30 -170 -49 -130 -38 -537 -165 -542 -169 -2 -3 183
-615 246 -812 11 -33 36 -112 56 -176 l36 -117 -36 -138 c-20 -77 -54 -209
-77 -294 -22 -85 -42 -163 -43 -173 -2 -9 -6 -21 -9 -25 -3 -5 -7 -19 -9 -33
-3 -13 -24 -96 -46 -184 -50 -193 -111 -429 -150 -582 -19 -75 -24 -113 -17
-113 7 0 120 34 251 76 252 79 390 122 415 128 8 3 28 9 43 15 33 13 60 14 53
3 -3 -5 -7 -19 -10 -33 -3 -13 -14 -58 -25 -99 -11 -41 -19 -75 -17 -77 1 -1
92 24 202 57 109 33 208 61 219 62 20 3 20 -5 20 -1177 l0 -1180 35 -50 c162
-239 433 -559 690 -815 216 -215 390 -369 619 -548 305 -238 699 -496 1051
-687 113 -62 503 -253 610 -300 47 -20 99 -43 115 -50 17 -8 76 -32 133 -54
l102 -41 103 41 c377 150 793 359 1217 612 221 131 638 430 860 616 319 267
655 603 860 860 19 24 42 51 50 60 20 22 154 199 215 286 l50 70 0 1180 c1
743 4 1179 10 1179 22 -3 287 -80 384 -111 24 -7 45 -12 47 -10 2 2 -9 51 -25
110 -16 62 -23 107 -17 107 5 0 82 -23 170 -51 286 -89 450 -141 510 -160 73
-23 90 -24 82 -3 -6 14 -44 160 -51 194 -2 8 -20 77 -40 153 -20 76 -38 146
-40 155 -2 9 -18 71 -35 137 -34 127 -68 260 -74 285 -24 96 -122 472 -137
527 l-20 72 42 133 c22 73 47 153 54 178 8 25 25 81 39 125 37 120 103 336
141 460 19 61 41 132 50 159 8 27 14 51 12 53 -6 6 -425 135 -647 199 -187 55
-573 156 -644 170 -63 12 -162 38 -169 44 -5 4 -25 72 -46 151 l-37 145 27 84
c31 98 70 224 133 430 l44 145 -72 22 c-39 13 -125 38 -191 57 l-120 34 -1
236 c0 129 -3 238 -6 241 -3 3 -57 15 -119 26 -162 28 -338 58 -379 65 -19 3
-46 7 -60 10 -14 2 -45 7 -70 9 -25 3 -56 7 -70 10 -47 9 -85 14 -250 35 -235
29 -304 37 -400 45 -30 3 -70 7 -90 9 -19 3 -80 8 -135 11 -55 4 -111 8 -125
10 -14 2 -83 7 -155 11 -71 3 -150 8 -175 11 -55 5 -1087 13 -1091 9z"/>
</g>
</svg>
